<svg width="21" height="20" viewBox="0 0 21 20" fill="none" xmlns="http://www.w3.org/2000/svg">
<path d="M11.998 20H9.99799V17H11.998V20ZM17.362 17.778L15.241 15.657L16.655 14.243L18.777 16.365L17.364 17.778H17.362ZM4.63399 17.778L3.21899 16.364L5.33899 14.242L6.75399 15.656L4.63399 17.777V17.778ZM10.998 15.007C8.23296 15.0059 5.99225 12.7637 5.99299 9.99867C5.99372 7.23364 8.23562 4.99263 11.0007 4.993C13.7657 4.99337 16.007 7.23497 16.007 10C16.0042 12.7649 13.7629 15.0053 10.998 15.007ZM10.998 6.993C9.33753 6.9941 7.99225 8.34087 7.99299 10.0013C7.99372 11.6618 9.34019 13.0074 11.0007 13.007C12.6611 13.0066 14.007 11.6605 14.007 10C14.0053 8.33918 12.6588 6.99355 10.998 6.993ZM20.998 11H17.998V9H20.998V11ZM3.99799 11H0.997986V9H3.99799V11ZM16.654 5.758L15.241 4.343L17.362 2.221L18.777 3.636L16.655 5.757L16.654 5.758ZM5.34099 5.758L3.22099 3.637L4.63599 2.223L6.75599 4.345L5.34199 5.757L5.34099 5.758ZM11.998 3H9.99799V0H11.998V3Z" fill="#0F1828"/>
</svg>
